HIERARCHY
ROOT Hips
{
	OFFSET 0.000000 0.000000 0.000000
	CHANNELS 6 Xposition Yposition Zposition Zrotation Yrotation Xrotation 
	JOINT LHipJoint
	{
		OFFSET 0.000000 0.000000 0.000000
		CHANNELS 3 Zrotation Yrotation Xrotation
		JOINT LeftUpLeg
		{
			OFFSET 1.363060 -1.794630 0.839290
			CHANNELS 3 Zrotation Yrotation Xrotation
			JOINT LeftLeg
			{
				OFFSET 2.448110 -6.726130 0.000000
				CHANNELS 3 Zrotation Yrotation Xrotation
				JOINT LeftFoot
				{
					OFFSET 2.562200 -7.039590 0.000000
					CHANNELS 3 Zrotation Yrotation Xrotation
					JOINT LeftToeBase
					{
						OFFSET 0.157640 -0.433110 2.322550
						CHANNELS 3 Zrotation Yrotation Xrotation
						End Site
						{
							OFFSET 0.000000 0.000000 0.000000
						}
					}
				}
			}
		}
	}
	JOINT RHipJoint
	{
		OFFSET 0.000000 0.000000 0.000000
		CHANNELS 3 Zrotation Yrotation Xrotation
		JOINT RightUpLeg
		{
			OFFSET -1.305520 -1.794630 0.839290
			CHANNELS 3 Zrotation Yrotation Xrotation
			JOINT RightLeg
			{
				OFFSET -2.542530 -6.985550 0.000000
				CHANNELS 3 Zrotation Yrotation Xrotation
				JOINT RightFoot
				{
					OFFSET -2.568260 -7.056230 0.000000
					CHANNELS 3 Zrotation Yrotation Xrotation
					JOINT RightToeBase
					{
						OFFSET -0.164730 -0.452590 2.363150
						CHANNELS 3 Zrotation Yrotation Xrotation
						End Site
						{
							OFFSET 0.000000 0.000000 0.000000
						}
					}
				}
			}
		}
	}
	JOINT LowerBack
	{
		OFFSET 0.000000 0.000000 0.000000
		CHANNELS 3 Zrotation Yrotation Xrotation
		JOINT Spine
		{
			OFFSET 0.028270 2.035590 -0.193380
			CHANNELS 3 Zrotation Yrotation Xrotation
			JOINT Spine1
			{
				OFFSET 0.056720 2.048850 -0.042750
				CHANNELS 3 Zrotation Yrotation Xrotation
				JOINT Neck
				{
					OFFSET 0.000000 0.000000 0.000000
					CHANNELS 3 Zrotation Yrotation Xrotation
					JOINT Neck1
					{
						OFFSET -0.054170 1.746240 0.172020
						CHANNELS 3 Zrotation Yrotation Xrotation
						JOINT Head
						{
							OFFSET 0.104070 1.761360 -0.123970
							CHANNELS 3 Zrotation Yrotation Xrotation
							End Site
							{
								OFFSET 0.000000 0.000000 0.000000
							}
						}
					}
				}
				JOINT LeftShoulder
				{
					OFFSET 0.000000 0.000000 0.000000
					CHANNELS 3 Zrotation Yrotation Xrotation
					JOINT LeftArm
					{
						OFFSET 3.362410 1.200890 -0.311210
						CHANNELS 3 Zrotation Yrotation Xrotation
						JOINT LeftForeArm
						{
							OFFSET 4.983000 -0.000000 -0.000000
							CHANNELS 3 Zrotation Yrotation Xrotation
							JOINT LeftHand
							{
								OFFSET 3.483560 -0.000000 -0.000000
								CHANNELS 3 Zrotation Yrotation Xrotation
								JOINT LeftFingerBase
								{
									OFFSET 0.000000 0.000000 0.000000
									CHANNELS 3 Zrotation Yrotation Xrotation
									JOINT LeftHandIndex1
									{
										OFFSET 0.715260 -0.000000 -0.000000
										CHANNELS 3 Zrotation Yrotation Xrotation
										End Site
										{
											OFFSET 0.000000 0.000000 0.000000
										}
									}
								}
								JOINT LThumb
								{
									OFFSET 0.000000 0.000000 0.000000
									CHANNELS 3 Zrotation Yrotation Xrotation
									End Site
									{
										OFFSET 0.000000 0.000000 0.000000
									}
								}
							}
						}
					}
				}
				JOINT RightShoulder
				{
					OFFSET 0.000000 0.000000 0.000000
					CHANNELS 3 Zrotation Yrotation Xrotation
					JOINT RightArm
					{
						OFFSET -3.136600 1.374050 -0.404650
						CHANNELS 3 Zrotation Yrotation Xrotation
						JOINT RightForeArm
						{
							OFFSET -5.241900 -0.000000 -0.000000
							CHANNELS 3 Zrotation Yrotation Xrotation
							JOINT RightHand
							{
								OFFSET -3.444170 -0.000000 -0.000000
								CHANNELS 3 Zrotation Yrotation Xrotation
								JOINT RightFingerBase
								{
									OFFSET 0.000000 0.000000 0.000000
									CHANNELS 3 Zrotation Yrotation Xrotation
									JOINT RightHandIndex1
									{
										OFFSET -0.622530 -0.000000 -0.000000
										CHANNELS 3 Zrotation Yrotation Xrotation
										End Site
										{
											OFFSET 0.000000 0.000000 0.000000
										}
									}
								}
								JOINT RThumb
								{
									OFFSET 0.000000 0.000000 0.000000
									CHANNELS 3 Zrotation Yrotation Xrotation
									End Site
									{
										OFFSET 0.000000 0.000000 0.000000
									}
								}
							}
						}
					}
				}
			}
		}
	}
}
MOTION
Frames: 5
Frame Time: 0.008333
10.010262 17.076088 2.265668 -3.382461 -82.879552 9.867982 -10.506326 1.179536 2.973981 -8.840714 -3.388520 -27.389641 -1.180036 1.100889 30.382088 1.261516 7.133336 -4.419586 0.458200 0.000000 -34.791400 9.789346 -0.662544 0.967005 5.631402 -4.735482 -29.939264 1.079142 -1.980628 30.877423 -0.535437 -2.437571 5.283474 -0.893300 0.000000 -73.366000 -1.072234 -1.789787 -4.895189 -0.927665 -1.902855 -3.335491 -6.148680 -1.927223 1.776397 11.418274 -12.860390 -7.308253 -2.921627 -0.234280 0.141679 0.000000 0.000000 0.000000 11.529283 14.301312 -3.611033 -54.866563 -17.446374 -32.607943 178.645462 -70.520989 179.645598 41.799570 -15.281617 -6.280546 -0.692590 0.853020 -0.000000 0.000000 0.000000 0.000000 0.000000 0.000000 0.000000 8.784679 -11.414843 -2.434688 50.569073 4.039184 -43.709790 -179.304777 71.362777 179.825890 -37.271549 31.623239 -11.298207 0.406628 -0.763842 -0.000000 0.000000 0.000000 0.000000 0.000000 0.000000 0.000000 
9.909334 16.783861 2.234149 -2.871665 -83.032012 9.670201 -10.417764 0.957562 2.844539 -9.002292 -4.173920 -29.408956 -1.229465 1.353544 35.775668 1.593961 8.004109 -10.682998 -0.459400 -0.000000 -29.099500 9.733420 -0.369508 1.079702 5.705737 -3.182437 -32.270768 0.886098 -2.233628 36.047917 -0.937121 -4.182310 0.105564 -0.902100 0.000001 -70.396099 -1.189492 -1.928412 -4.751180 -0.974456 -2.033541 -3.353996 -6.376770 -2.053747 1.558491 11.570590 -12.284897 -7.375391 -3.055658 -0.242999 0.119881 0.000000 0.000000 0.000000 10.845227 13.902363 -3.295583 -55.474311 -16.706910 -32.273871 178.813240 -71.890557 179.657569 42.148832 -14.454448 -5.989603 -0.687804 0.808692 -0.000000 0.000000 0.000000 0.000000 0.000000 0.000000 0.000000 9.531934 -10.661317 -2.320115 52.538487 3.806514 -42.170990 -179.401899 73.146214 179.832958 -37.197736 31.505599 -11.216225 0.391548 -0.733485 -0.000000 0.000000 0.000000 0.000000 0.000000 0.000000 0.000000 
9.809613 16.495545 2.195152 -1.356955 -83.038494 8.460308 -10.342883 0.781948 2.705197 -9.233712 -4.929746 -31.445153 -1.274666 1.666467 41.195914 1.911173 8.626725 -16.309271 -1.467000 -0.000001 -24.641100 9.751695 -0.048681 1.149650 5.558835 -1.888912 -34.611145 0.683123 -2.517500 41.514643 -1.345480 -5.658992 -5.027872 -0.559900 0.000000 -67.205001 -1.449135 -2.117631 -4.557025 -1.043212 -2.201499 -3.359276 -6.587841 -2.219636 1.344577 11.725258 -11.763498 -7.449432 -3.168716 -0.249742 0.094752 0.000000 0.000000 0.000000 10.226479 13.509023 -2.983942 -56.090542 -15.975674 -31.849537 178.955441 -73.386751 179.668143 42.511667 -13.389358 -5.598767 -0.680136 0.761284 -0.000000 0.000000 0.000000 0.000000 0.000000 0.000000 0.000000 10.224846 -9.999784 -2.204062 54.695956 3.539826 -40.580789 -179.485137 75.133841 179.839274 -37.132511 31.244401 -11.084170 0.375549 -0.700888 -0.000000 0.000000 0.000000 0.000000 0.000000 0.000000 0.000000 
9.710373 16.218046 2.149977 0.971306 -82.902325 6.402236 -10.283645 0.662960 2.557727 -9.544330 -5.598631 -33.386710 -1.299153 2.016738 46.395587 2.185483 9.032454 -21.110613 -2.420200 -0.000000 -21.782800 9.842334 0.277578 1.158899 5.255029 -0.968400 -36.816740 0.483848 -2.816260 46.941343 -1.718595 -6.854106 -9.829300 0.020000 0.000001 -64.143400 -1.830418 -2.346342 -4.302629 -1.130711 -2.396713 -3.348408 -6.780605 -2.414159 1.138632 11.885003 -11.314629 -7.532567 -3.266742 -0.254963 0.065553 0.000000 0.000000 0.000000 9.646402 13.112089 -2.678858 -56.725120 -15.251718 -31.303210 179.078111 -75.003287 179.677828 42.857444 -12.079916 -5.099224 -0.669479 0.711057 0.000000 0.000000 0.000000 0.000000 0.000000 0.000000 0.000000 10.902687 -9.446238 -2.085192 56.968434 3.252212 -38.950771 -179.558011 77.351709 179.845287 -37.054799 30.827071 -10.891149 0.358648 -0.665697 -0.000000 0.000000 0.000000 0.000000 0.000000 0.000000 0.000000 
9.611063 15.957984 2.100796 3.696863 -82.641000 3.907451 -10.240307 0.598478 2.408443 -9.914684 -6.140811 -35.173998 -1.293602 2.378971 51.202164 2.400534 9.240653 -25.032540 -3.223800 0.000000 -20.460400 9.989160 0.588251 1.106532 4.875701 -0.449671 -38.797075 0.296725 -3.114917 52.060164 -2.030418 -7.775568 -14.113379 0.710000 0.000000 -61.547000 -2.287575 -2.597799 -3.998961 -1.228772 -2.606305 -3.321948 -6.953190 -2.623638 0.950340 12.047752 -10.961109 -7.632016 -3.354438 -0.259002 0.030477 0.000000 0.000000 0.000000 9.063224 12.722088 -2.383695 -57.387258 -14.555579 -30.605864 179.187744 -76.743945 179.687316 43.150065 -10.539593 -4.491260 -0.655538 0.658414 0.000000 0.000000 0.000000 0.000000 0.000000 0.000000 0.000000 11.596915 -9.019879 -1.963020 59.271914 2.981112 -37.291433 -179.624599 79.836526 179.851458 -36.937656 30.256119 -10.630971 0.340795 -0.627842 0.000000 0.000000 0.000000 0.000000 0.000000 0.000000 0.000000 
